<?xml version="1.0" encoding="UTF-8"?>
<svg version="1.1" xmlns="http://www.w3.org/2000/svg" width="3336" height="2009">
<path d="M0 0 C677.16 0 1354.32 0 2052 0 C2044.98592359 18.70420375 2044.98592359 18.70420375 2041.61083984 27.3659668 C2041.34986511 28.03590668 2041.08889038 28.70584656 2040.82000732 29.39608765 C2040.54940491 30.09037872 2040.27880249 30.7846698 2040 31.5 C2039.71763489 32.22514801 2039.43526978 32.95029602 2039.14434814 33.69741821 C2036.76760958 39.80012101 2034.38471253 45.90040927 2032 52 C2031.562323 53.11953064 2031.124646 54.23906128 2030.67370605 55.39251709 C2027.73967203 62.89557439 2024.80200328 70.39719598 2021.86083984 77.89746094 C2020.87497754 80.41161994 2019.88999328 82.92612014 2018.90576172 85.44091797 C2017.5095208 89.00698636 2016.11057316 92.57198161 2014.7109375 96.13671875 C2014.29476166 97.20101608 2013.87858582 98.26531342 2013.44979858 99.36186218 C2013.05434845 100.36739639 2012.65889832 101.3729306 2012.25146484 102.40893555 C2011.74188736 103.70833321 2011.74188736 103.70833321 2011.22201538 105.03398132 C2009.56418442 109.05779124 2007.76749341 113.02313983 2006 117 C1332.8 117 659.6 117 -34 117 C-29.38 101.16 -24.76 85.32 -20 69 C-15.67902603 54.13784198 -15.67902603 54.13784198 -11.36328125 39.27416992 C-10.40233149 35.96247575 -9.44105991 32.65087533 -8.47961807 29.339324 C-7.53312064 26.07912888 -6.58687464 22.8188608 -5.640625 19.55859375 C-5.30113831 18.38912704 -4.96165161 17.21966034 -4.61187744 16.01475525 C-4.29684265 14.92892654 -3.98180786 13.84309784 -3.65722656 12.72436523 C-3.38412659 11.78326401 -3.11102661 10.84216278 -2.82965088 9.87254333 C-1.87974106 6.58362122 -0.94046706 3.29163471 0 0 Z " fill="#1A1A1A" transform="translate(170,917)"/>
<path d="M0 0 C658.68 0 1317.36 0 1996 0 C1981.49180328 42.31557377 1981.49180328 42.31557377 1974.45214844 62.76855469 C1973.32923605 66.03114746 1972.2071513 69.29402431 1971.08522224 72.55695534 C1969.97667328 75.78036 1968.86717473 79.00343764 1967.7578125 82.2265625 C1967.171707 83.93170517 1967.171707 83.93170517 1966.57376099 85.67129517 C1963.43033002 94.7986788 1960.21319286 103.89595356 1957 113 C1300.63 113 644.26 113 -32 113 C-30.80773906 107.03869532 -29.6802787 101.51256433 -27.98803711 95.74731445 C-27.79737671 95.09339218 -27.60671631 94.43946991 -27.41027832 93.76573181 C-26.7866284 91.63038879 -26.15702271 89.49685337 -25.52734375 87.36328125 C-25.08055593 85.83769212 -24.63415853 84.3119886 -24.18812561 82.78617859 C-23.01330296 78.77096272 -21.83347343 74.75723581 -20.65246582 70.74383545 C-19.48490889 66.7734043 -18.32160655 62.80172793 -17.15820312 58.83007812 C-15.83037633 54.29734665 -14.50236123 49.76467591 -13.17015076 45.23323059 C-8.74376662 30.16581445 -4.3785728 15.08175077 0 0 Z " fill="#1A1A1A" transform="translate(32,1396)"/>
<path d="M0 0 C664.29 0 1328.58 0 2013 0 C2012.29127524 3.54362378 2011.66729626 6.13008425 2010.33618164 9.36743164 C2009.99329102 10.20763351 2009.65040039 11.04783539 2009.29711914 11.91349792 C2008.92192139 12.81989517 2008.54672363 13.72629242 2008.16015625 14.66015625 C2007.56920166 16.10307793 2007.56920166 16.10307793 2006.96630859 17.57514954 C2005.66926284 20.73935177 2004.36594704 23.90092993 2003.0625 27.0625 C2002.16096401 29.25780572 2001.25984566 31.453283 2000.35913086 33.64892578 C1998.50043257 38.17867945 1996.63951573 42.70751321 1994.77734375 47.23583984 C1992.12067274 53.70047543 1989.4799119 60.17151023 1986.84375 66.64453125 C1985.63575452 69.60826786 1984.42760985 72.57194363 1983.2194519 75.53561401 C1982.45563946 77.41015895 1981.69238352 79.28493076 1980.92971802 81.15994263 C1979.86278349 83.78196381 1978.79303296 86.40281997 1977.72265625 89.0234375 C1977.4181958 89.77361649 1977.11373535 90.52379547 1976.80004883 91.29670715 C1974.35056295 97.2822801 1971.68272203 103.09801153 1969 109 C1309 109 649 109 -31 109 C-22.9512613 79.10468484 -22.9512613 79.10468484 -19.3359375 66.62109375 C-18.93174918 65.21929711 -18.52775301 63.81744506 -18.12393188 62.4155426 C-17.08570028 58.8132815 -16.0447214 55.2118205 -15.00311279 51.61053467 C-14.16061268 48.69580028 -13.32018843 45.78046924 -12.47984886 42.86511135 C-11.45342939 39.30439836 -10.42605094 35.74396233 -9.3984375 32.18359375 C-9.2119804 31.53747068 -9.0255233 30.89134762 -8.83341599 30.22564507 C-5.92175707 20.14054798 -2.96195424 10.07064442 0 0 Z " fill="#1A1A1A" transform="translate(74,1250)"/>
<path d="M0 0 C89.21317212 -0.04862646 178.42636255 -0.06905542 1013.41660528 0.43126931 C1018.34215723 0.43611621 1023.26770919 0.44095635 1028.19326115 0.44579303 C1097.41254249 0.51376896 1166.63182242 0.58310643 2134 2 C2133.85282894 4.6575499 2133.70311265 7.31491775 2133.55200195 9.97224426 C2133.51127815 10.71231232 2133.47055435 11.45238038 2133.4285965 12.21487474 C2133.05373796 18.74974681 2132.43500941 25.24600812 2131.69262695 31.74967957 C2131.61033844 32.47516684 2131.52804993 33.20065411 2131.44326782 33.94812584 C2131.35886444 34.6909865 2131.27446106 35.43384716 2131.1875 36.19921875 C2131.01162365 37.77476787 2130.83609396 39.35035573 2130.66088867 40.92597961 C2130.29713052 44.18916203 2129.9305271 47.45200626 2129.56152344 50.71459961 C2129.08997688 54.88430702 2128.62382431 59.05459517 2128.15953064 63.22511578 C2127.79891085 66.46209973 2127.43647714 69.69887835 2127.07339478 72.93558693 C2126.90084221 74.47406167 2126.72861599 76.01257306 2126.55673218 77.55112267 C2126.31685513 79.69402563 2126.0747766 81.83666834 2125.83203125 83.97924805 C2125.69514893 85.19372116 2125.5582666 86.40819427 2125.41723633 87.6594696 C2125.0260092 90.79176185 2124.52831164 93.88845407 2124 97 C2060.91252259 97.10451192 1997.82503841 97.20463109 1934.73754883 97.30151367 C1933.50306341 97.30340983 1932.26857799 97.30530598 1930.99668392 97.3072596 C1848.59402419 97.43375636 1766.19135232 97.55594717 1536.42294837 97.80254105 C1534.22244509 97.80452131 1532.02194182 97.80650561 1529.82143855 97.80849123 C1467.46861956 97.86474785 1405.11579793 97.91731788 1342.76297174 97.96495162 C1340.45519563 97.96671463 1338.14741952 97.96847787 1335.83964341 97.97024126 C1335.07742547 97.97082363 1334.31520754 97.97140599 1333.5298921 97.972006 C1304.86947697 97.99391367 1276.20906252 98.01666365 1247.54864846 98.03991639 C1244.43464545 98.04244202 1241.32064243 98.04495805 1238.2066394 98.04746536 C1164.69925754 98.10665889 1091.19193599 98.18099656 1017.68463135 98.30462646 C1016.9108956 98.30592672 1016.13715985 98.30722698 1015.33997757 98.30856664 C989.60970424 98.35183017 963.87943346 98.39656391 938.14916301 98.44150037 C914.90086218 98.48209772 891.65256056 98.5221672 868.40425587 98.56049633 C867.25867902 98.56238535 867.25867902 98.56238535 866.08995921 98.56431253 C818.26298977 98.64303976 770.43603457 98.69890108 722.60901165 98.73165607 C721.87036879 98.73216497 721.13172592 98.73267386 720.37069994 98.73319817 C687.93162775 98.75552907 655.49255484 98.77309127 623.05347725 98.78520009 C610.00310137 98.79009358 596.95272581 98.79569348 583.90235039 98.80168021 C581.73849643 98.80266697 579.57464246 98.80363082 577.4107885 98.80459221 C544.30705183 98.81946391 511.20342521 98.85010324 478.09976792 98.92648482 C477.38572935 98.92813212 476.67169078 98.92977941 475.93601468 98.93147662 C464.44950192 98.95807263 452.96299235 98.98598244 441.47648328 99.01411892 C408.86948057 99.09398994 376.26259263 99.16501791 343.65547884 99.16852248 C342.99391317 99.16859799 342.33234751 99.16867351 341.6507344 99.16875131 C327.86229484 99.17014525 314.07385984 99.1672 300.28542276 99.15885577 C293.88460849 99.15499708 287.48379404 99.15181688 281.0829792 99.14904594 C279.20081731 99.14819435 279.20081731 99.14819435 277.28063194 99.14732555 C257.38794963 99.14008471 237.4959816 99.19687091 217.60349407 99.28018739 C198.05680288 99.36074587 178.51104015 99.37393274 158.96426153 99.31480446 C147.49468824 99.28215848 136.02805396 99.30185952 124.55882194 99.39812303 C116.94707913 99.45684494 109.3374439 99.44698054 101.72576731 99.38072038 C97.40559844 99.34505479 93.09115343 99.33904126 88.77142056 99.41746965 C63.95474431 99.84029375 63.95474431 99.84029375 57.39604824 95.12984423 C53.16237958 90.73270192 50.44335006 85.84252852 48.03402219 80.27286214 C46.55729124 77.02689132 44.62881514 74.33375289 42.5390625 71.44921875 C41.23412384 69.52881648 39.9294349 67.60824449 38.625 65.6875 C33.86418231 58.68174388 29.10194563 51.67699153 24.32763672 44.68041992 C23.11664979 42.90438125 21.90731807 41.12721277 20.69970703 39.34887695 C17.65115879 34.86334244 14.58309417 30.39346079 11.46960449 25.95281982 C9.86330376 23.65864424 8.26673442 21.35778451 6.67114258 19.05615234 C5.52081216 17.40487544 4.35719477 15.76288017 3.19335938 14.12109375 C2.50048828 13.11949219 1.80761719 12.11789062 1.09375 11.0859375 C0.16079102 9.7563501 0.16079102 9.7563501 -0.79101562 8.39990234 C-2 6 -2 6 -1.75585938 3.80712891 C-1.21660034 2.51785392 -0.62498485 1.24996969 0 0 Z " fill="#1A1A1A" transform="translate(202,0)"/>
<path d="M0 0 C591.69 0 1183.38 0 1793 0 C1787.37965426 5.62034574 1787.37965426 5.62034574 1784.1640625 7.5859375 C1783.44202637 8.03356445 1782.71999023 8.48119141 1781.97607422 8.94238281 C1781.20021973 9.41514648 1780.42436523 9.88791016 1779.625 10.375 C1777.91044439 11.4384712 1776.19694796 12.50365146 1774.484375 13.5703125 C1773.58654297 14.12879883 1772.68871094 14.68728516 1771.76367188 15.26269531 C1767.09452775 18.1978216 1762.48656462 21.22551686 1757.875 24.25 C1749.78097628 29.5493179 1741.65538471 34.79561843 1733.5 40 C1725.47169168 45.12413565 1717.46992582 50.28551686 1709.5 55.5 C1701.53007185 60.71448467 1693.52818383 65.87566689 1685.5 71 C1677.43362285 76.15009074 1669.38769196 81.32923719 1661.375 86.5625 C1660.57112935 87.07598355 1659.7672587 87.5894671 1658.93902834 88.11851075 C1654.10269576 91.23184188 1649.4032991 94.40368694 1644.8671787 97.94267986 C1630.225274 109.01983151 1618.41921127 111.20063055 1600.3191471 110.87256176 C1596.79047066 110.82583547 1593.26252147 110.8681726 1589.73381498 110.8981649 C1583.54799345 110.93887448 1577.36425581 110.92465858 1571.17854191 110.87324774 C1561.91914631 110.7965945 1552.661217 110.80777019 1543.40161789 110.83524637 C1527.61650426 110.87958699 1511.83222564 110.85332187 1496.04721642 110.78808212 C1480.06182405 110.72230608 1464.07686319 110.68950528 1448.09133148 110.69661522 C1446.57433364 110.69726079 1446.57433364 110.69726079 1445.02668939 110.69791941 C1439.86949665 110.70026518 1434.71230436 110.7031444 1429.55511201 110.70621195 C1392.26942904 110.72730013 1354.98412977 110.67594674 1317.69856453 110.58595085 C1280.78310304 110.4970615 1243.8678059 110.43931407 1206.95223808 110.42315865 C1205.23145376 110.42238438 1205.23145376 110.42238438 1203.47590613 110.42159447 C1192.99782877 110.41689636 1182.51975128 110.41258102 1172.04167358 110.40872485 C1145.9963717 110.3991349 1119.95107366 110.38474568 1093.90577602 110.3670969 C1092.71983657 110.36629714 1091.53389711 110.36549738 1090.31202009 110.36467338 C1032.64732329 110.32536703 974.98273492 110.23076042 917.31811523 110.1315918 C897.31156496 110.09721635 877.30501432 110.06308565 857.29846191 110.02996826 C855.43720529 110.02688691 855.43720529 110.02688691 853.53834752 110.0237433 C795.83599571 109.9285512 738.13362526 109.87268829 680.43121551 109.82694633 C676.68432531 109.82397538 672.93743512 109.82098749 669.19054493 109.81799615 C644.35934297 109.79819912 619.52814051 109.77907944 594.69693767 109.76041326 C545.29060013 109.72326742 495.88426614 109.68214226 446.47793411 109.63828255 C444.1251688 109.63619395 441.77240349 109.63410813 439.41963818 109.63202511 C333.52718244 109.53824991 227.63480615 109.39818727 121.74243164 109.23803711 C120.75106684 109.23653808 119.75970204 109.23503905 118.73829588 109.23349459 C69.15885942 109.15849038 19.57942723 109.08088016 -30 109 C-29.37785782 106.49269293 -28.75449054 103.98570059 -28.13044739 101.47886658 C-27.95715424 100.77993963 -27.78386109 100.08101268 -27.60531664 99.36090612 C-26.11146654 93.36647634 -24.504212 87.40738618 -22.82951355 81.46083069 C-22.55369981 80.4798878 -22.55369981 80.4798878 -22.27231407 79.47912788 C-22.08319262 78.80667974 -21.89407116 78.13423161 -21.69921875 77.44140625 C-21.29552707 75.99964214 -20.89203372 74.55782248 -20.48872375 73.11595154 C-19.43632942 69.35553995 -18.38131528 65.59586862 -17.32568359 61.83636475 C-16.27347514 58.08731867 -15.223749 54.33757785 -14.17382812 50.58789062 C-12.60901123 45.00035431 -11.04283877 39.41320108 -9.4753418 33.82641602 C-6.31344108 22.55191195 -3.15722779 11.27581353 0 0 Z " fill="#1A1A1A" transform="translate(259,604)"/>
<path d="M0 0 C0.9016607 0.00006401 1.8033214 0.00012801 2.73230515 0.00019396 C4.29059951 -0.00333539 4.29059951 -0.00333539 5.88037456 -0.00693603 C7.61802878 -0.00317271 7.61802878 -0.00317271 9.39078713 0.00066663 C10.61495173 -0.00061146 11.83911633 -0.00188954 13.10037683 -0.00320636 C16.53487755 -0.00576235 19.96932384 -0.00377593 23.40382003 0.00002767 C27.14038622 0.00307219 30.87694873 0.00033824 34.613515 -0.0016792 C41.19979134 -0.00442479 47.78605906 -0.00341041 54.37233497 -0.00001806 C64.23223952 0.00504062 74.09213786 0.00435872 83.95204323 0.00251537 C100.75213381 -0.00045723 117.55222093 0.00133033 134.35231108 0.00565965 C151.38855938 0.01003054 168.42480588 0.01223307 185.46105475 0.01175744 C186.53518926 0.01172875 187.60932377 0.01170006 188.71600781 0.0116705 C194.19256631 0.01151413 199.6691248 0.01132218 205.1456833 0.01111766 C244.83404133 0.00970839 284.52239776 0.01314712 324.2107553 0.01913507 C363.52796907 0.02505288 402.84518216 0.02890922 442.16239638 0.02998788 C443.99239416 0.0300395 443.99239416 0.0300395 445.8593616 0.03009216 C457.00179017 0.03040535 468.14421873 0.03069304 479.2866473 0.03095013 C506.98834131 0.03158962 534.69003531 0.032549 562.3917293 0.03372533 C563.65335305 0.03377865 564.91497681 0.03383197 566.21483158 0.0338869 C627.62015986 0.03650988 689.02548769 0.04281804 750.43081564 0.04942567 C771.74600119 0.05171728 793.06118673 0.05399324 814.37637228 0.05620057 C815.36776069 0.05630332 815.36776069 0.05630332 816.37917714 0.05640815 C878.47339267 0.06283826 940.56760826 0.0666512 1002.66182404 0.06973537 C1006.64854694 0.06993343 1010.63526983 0.07013263 1014.62199272 0.07033205 C1041.04170036 0.0716518 1067.46140801 0.07292646 1093.88111566 0.07417091 C1146.45201715 0.07664756 1199.02291862 0.07938925 1251.59382009 0.08231295 C1254.09751437 0.08245219 1256.60120864 0.08259125 1259.10490292 0.08273012 C1371.84879462 0.08898505 1484.592686 0.09832357 1597.33657736 0.10899598 C1598.9204719 0.10914589 1598.9204719 0.10914589 1600.53636431 0.10929882 C1653.34924459 0.11429952 1706.16212486 0.1194736 1758.9750051 0.12486512 C1757.08610532 4.29938934 1754.22956764 6.876152 1750.8500051 9.87486512 C1749.66520129 10.94514169 1748.48160485 12.01675633 1747.29922385 13.08970887 C1746.43949973 13.86870546 1746.43949973 13.86870546 1745.56240744 14.66343934 C1743.53487734 16.53006425 1741.5917058 18.46965742 1739.6625051 20.43736512 C1737.22778232 22.91275133 1734.73653787 25.24072869 1732.1000051 27.49986512 C1728.90818001 30.24107961 1725.93197533 33.131724 1722.9750051 36.12486512 C1719.45394187 39.68886815 1715.84314502 43.0279068 1712.0375051 46.28111512 C1709.58575821 48.47282825 1707.28614937 50.78553617 1704.9750051 53.12486512 C1702.07908552 56.05604704 1699.17257938 58.88889687 1696.0375051 61.56236512 C1692.68575436 64.42658848 1689.56943753 67.48820229 1686.4750051 70.62486512 C1682.78505922 74.36516851 1678.99996812 77.90725862 1675.00234885 81.31627137 C1671.65894339 84.29892402 1668.5642414 87.52843204 1665.41641135 90.71470887 C1662.73931397 93.35753941 1659.96038936 95.81461261 1657.07108783 98.22102835 C1654.9139961 100.09983353 1654.9139961 100.09983353 1653.04019212 102.3900113 C1649.21403181 106.79449711 1646.3798181 109.64604467 1640.42815951 110.24690561 C1638.30996542 110.29126438 1636.19038635 110.28668128 1634.0721854 110.24265159 C1632.30289111 110.25990576 1632.30289111 110.25990576 1630.49785349 110.27750849 C1627.22502582 110.30031614 1623.95528226 110.28287489 1620.68264911 110.24840218 C1617.10903759 110.22077609 1613.53571864 110.24566557 1609.96209929 110.26376406 C1603.67548953 110.28837142 1597.38961391 110.2794573 1591.10304093 110.24881377 C1581.69210455 110.20312031 1572.28169251 110.20946043 1562.8706853 110.22601295 C1546.83258404 110.25271261 1530.79477741 110.23674265 1514.75671286 110.1977144 C1498.50104353 110.1583307 1482.24552651 110.13855888 1465.98980803 110.14283426 C1464.96362931 110.14309249 1463.93745059 110.14335071 1462.88017554 110.14361677 C1457.64781765 110.14502412 1452.41545992 110.14675166 1447.18310217 110.1485923 C1409.29663982 110.16126474 1371.41031307 110.13036517 1333.52389235 110.07643564 C1295.99957955 110.02314907 1258.4753248 109.98846297 1220.95097441 109.97876031 C1219.78598293 109.9784506 1218.62099144 109.9781409 1217.42069719 109.97782181 C1206.78042853 109.97500304 1196.14015982 109.97241383 1185.49989104 109.97010003 C1159.04836033 109.96434517 1132.59683098 109.95571109 1106.14530177 109.94512326 C1104.94070449 109.94464341 1103.73610722 109.94416355 1102.49500699 109.94366915 C1043.8860229 109.92007058 985.27707714 109.86330054 926.66812033 109.8038202 C906.32732066 109.78319542 885.98652085 109.76271722 865.64572043 109.74284608 C864.38419672 109.74161354 863.12267301 109.740381 861.82292131 109.7391111 C803.18722464 109.68202339 744.5515214 109.64848698 685.91580424 109.62103292 C682.10952928 109.61925035 678.30325434 109.61745762 674.49697939 109.61566281 C649.27277746 109.60378487 624.04857535 109.59231301 598.82437311 109.58111308 C548.63368105 109.55882406 498.44299025 109.5341489 448.25230015 109.50783465 C445.86204246 109.5065815 443.47178478 109.50533 441.08152709 109.50408019 C333.4658413 109.4477963 225.85018363 109.3637529 118.23452658 109.26768739 C117.22677078 109.26678797 116.21901498 109.26588855 115.18072113 109.26496188 C64.7788142 109.21995694 14.37690877 109.17339042 -36.0249949 109.12486512 C-35.08080241 105.80468425 -34.13495186 102.48497782 -33.18882852 99.16534669 C-32.79251662 97.77163181 -32.79251662 97.77163181 -32.38819843 96.34976108 C-29.97763631 87.89718378 -27.41767349 79.49636844 -24.80233865 71.10533387 C-24.32944556 69.58190288 -23.85675898 68.05840777 -23.38426309 66.53485353 C-22.16028845 62.59012701 -20.93351461 58.64627691 -19.70608621 54.70262391 C-18.46618227 50.71697851 -17.22915315 46.73044107 -15.99179178 42.74400575 C-11.503836 28.28916646 -11.503836 28.28916646 -9.89768987 23.14055402 C-8.80088398 19.62448121 -7.71139641 16.1063515 -6.63171487 12.58497865 C-6.40360148 11.84493498 -6.17548809 11.10489131 -5.94046216 10.34242208 C-5.5016479 8.91872411 -5.06524355 7.49428053 -4.6315537 6.06901319 C-2.80866248 0.17318759 -2.80866248 0.17318759 0 0 Z " fill="#1A1A1A" transform="translate(1086.0249949025456,1749.875134875765)"/>
<path d="M0 0 C1.26877044 0.00009601 1.26877044 0.00009601 2.56317261 0.00019396 C3.53787902 -0.00215894 4.51258542 -0.00451183 5.51682839 -0.00693603 C7.1466947 -0.00317271 7.1466947 -0.00317271 8.80948761 0.00066663 C9.95795963 -0.00061146 11.10643166 -0.00188954 12.28970586 -0.00320636 C15.5115507 -0.00576217 18.73335777 -0.00377612 21.95520027 0.00002767 C25.4605209 0.00307238 28.96583762 0.00033819 32.47115832 -0.0016792 C38.64973234 -0.0044247 44.82829716 -0.00341051 51.00687072 -0.00001806 C60.25642817 0.00504076 69.505979 0.00435868 78.75553733 0.00251537 C94.51569389 -0.00045718 110.27584675 0.00133028 126.03600284 0.00565965 C142.01763869 0.01003058 157.99927262 0.01223307 173.98090908 0.01175744 C174.98856004 0.01172875 175.996211 0.01170006 177.03439683 0.0116705 C182.17198611 0.01151413 187.30957539 0.01132218 192.44716467 0.01111766 C229.67878098 0.0097084 266.91039559 0.01314708 304.14201137 0.01913507 C341.02539743 0.0250529 377.90878277 0.02890923 414.7921693 0.02998788 C415.93665187 0.03002229 417.08113445 0.0300567 418.26029831 0.03009216 C428.71303017 0.03040535 439.16576204 0.03069304 449.61849391 0.03095013 C475.60548862 0.03158962 501.59248331 0.032549 527.57947799 0.03372533 C528.76300816 0.03377865 529.94653833 0.03383197 531.16593305 0.0338869 C588.77015667 0.03650987 646.37437981 0.04281803 703.97860309 0.04942567 C723.97431028 0.05171728 743.97001748 0.05399263 763.96572467 0.05620057 C765.82587002 0.056406 765.82587002 0.056406 767.72359406 0.05661557 C825.34776261 0.06295695 882.97193124 0.06668437 940.59610004 0.06973537 C944.33604583 0.06993343 948.07599162 0.07013263 951.81593741 0.07033205 C976.60027446 0.0716518 1001.38461152 0.07292646 1026.16894857 0.07417091 C1075.48571941 0.07664756 1124.80249022 0.07938925 1174.11926103 0.08231295 C1176.46797641 0.08245219 1178.81669179 0.08259125 1181.16540717 0.08273012 C1286.93028782 0.08898504 1392.69516812 0.09832356 1498.46004841 0.10899598 C1499.4506134 0.10909592 1500.4411784 0.10919585 1501.46176052 0.10929882 C1551.00537929 0.11429952 1600.54899804 0.1194736 1650.09261676 0.12486512 C1649.13607456 1.24651506 1648.17872468 2.36747625 1647.22103473 3.48814637 C1646.42147861 4.42461 1646.42147861 4.42461 1645.60576984 5.37999208 C1640.91476811 10.78936051 1635.64754974 15.55415798 1630.22542926 20.21080262 C1627.7532964 22.4293834 1625.42699499 24.76193182 1623.09261676 27.12486512 C1620.19669719 30.05604704 1617.29019105 32.88889687 1614.15511676 35.56236512 C1610.80336603 38.42658848 1607.6870492 41.48820229 1604.59261676 44.62486512 C1600.90267088 48.36516851 1597.11757979 51.90725862 1593.11996051 55.31627137 C1589.77518623 58.30014516 1586.67926519 61.53106245 1583.53011676 64.71861512 C1580.8397777 67.37446266 1578.02688152 69.82621945 1575.15511676 72.28111512 C1572.70336988 74.47282825 1570.40376104 76.78553617 1568.09261676 79.12486512 C1564.57155354 82.68886815 1560.96075669 86.0279068 1557.15511676 89.28111512 C1553.80773022 92.27347582 1550.70402791 95.50594048 1547.54964801 98.69908387 C1544.79562244 101.41808209 1541.93603789 103.96197832 1538.97933551 106.45689637 C1536.9442303 108.14648438 1536.9442303 108.14648438 1535.14228849 110.69030114 C1530.69132333 114.24352275 1526.95528602 113.81391999 1521.41115036 113.74585761 C1520.31520346 113.75224804 1519.21925656 113.75863847 1518.09009915 113.76522255 C1514.38427998 113.78064658 1510.67950826 113.76015919 1506.97372314 113.74010427 C1504.29205005 113.74379987 1501.6104478 113.74948166 1498.92879122 113.75758676 C1493.06280281 113.77128322 1487.1970569 113.76627679 1481.33108055 113.74928104 C1472.54961254 113.72393752 1463.76831838 113.72740866 1454.98682705 113.73661391 C1440.02270421 113.75146052 1425.05867871 113.74255863 1410.09456798 113.7208925 C1394.92410514 113.69902416 1379.75369262 113.68802699 1364.58321354 113.69040353 C1363.6260729 113.69054699 1362.66893226 113.69069045 1361.68278736 113.69083826 C1356.80257511 113.69162011 1351.92236291 113.69257985 1347.0421507 113.69360244 C1311.69193544 113.70064544 1276.34176502 113.6834667 1240.99156353 113.65351541 C1205.97592737 113.62391837 1170.96031041 113.60464303 1135.94466182 113.59925134 C1134.31439889 113.59899325 1134.31439889 113.59899325 1132.65120136 113.59872995 C1122.72479537 113.59716398 1112.79838936 113.59572553 1102.87198333 113.59444007 C1078.19437704 113.5912428 1053.51677121 113.58644601 1028.83916542 113.58056409 C1027.1533887 113.58016421 1027.1533887 113.58016421 1025.4335559 113.57975625 C970.74446283 113.56664385 916.05538245 113.53510409 861.36629841 113.50206239 C842.38436491 113.49060424 823.40243137 113.4792275 804.42049762 113.46818788 C803.24326051 113.46750313 802.0660234 113.46681839 800.85311244 113.46611289 C746.14182057 113.43440137 691.43052652 113.41576741 636.71922787 113.4005139 C633.16799049 113.39952358 629.61675311 113.39852762 626.06551573 113.39753051 C602.5315794 113.39093169 578.99764302 113.38455843 555.46370659 113.37833621 C508.63570748 113.36595321 461.80770879 113.35224478 414.97971033 113.33762597 C412.74956262 113.33692978 410.51941491 113.3362345 408.2892672 113.33554016 C307.87369451 113.30426869 207.45813112 113.25757709 107.04256794 113.20421083 C106.1021758 113.20371115 105.16178366 113.20321147 104.19289479 113.20269666 C57.15946825 113.17769357 10.12604222 113.15182323 -36.90738324 113.12486512 C-36.43585509 111.21885172 -35.96296945 109.31317411 -35.48951939 107.40763719 C-35.09473293 105.81574654 -35.09473293 105.81574654 -34.69197098 104.19169647 C-33.66795477 100.18897652 -32.4933118 96.24762756 -31.25943402 92.30552919 C-31.01343457 91.51017762 -30.76743512 90.71482606 -30.51398114 89.89537294 C-29.71332145 87.30943829 -28.90806592 84.72496117 -28.10269574 82.14049012 C-27.53575369 80.31275759 -26.96909864 78.48493601 -26.40271405 76.65703065 C-24.91812341 71.86854688 -23.42959308 67.08129685 -21.94022015 62.29429872 C-20.43853094 57.46514729 -18.94073862 52.6347877 -17.44253949 47.80455262 C-14.74542256 39.11160596 -12.04760072 30.41888216 -9.3390849 21.72947938 C-8.36998069 18.61865108 -7.40910992 15.50543109 -6.45370892 12.39036805 C-6.22365092 11.64404996 -5.99359291 10.89773187 -5.75656346 10.12879808 C-5.32313936 8.72250154 -4.89210925 7.31546418 -4.46385792 5.90758378 C-2.69198121 0.17622812 -2.69198121 0.17622812 0 0 Z " fill="#1A1A1A" transform="translate(1040.9073832354043,1895.875134875765)"/>
<path d="M0 0 C187.77 0 375.54 0 569 0 C567.75488344 6.22558281 566.51208345 12.10989372 564.65234375 18.125 C564.43558487 18.83857666 564.21882599 19.55215332 563.99549866 20.28735352 C563.54309691 21.77346833 563.08845065 23.25890167 562.6315918 24.74365234 C561.93086595 27.02156591 561.23734894 29.30158283 560.54492188 31.58203125 C560.10197401 33.03397977 559.65862937 34.48580732 559.21484375 35.9375 C559.00754135 36.6176416 558.80023895 37.2977832 558.58665466 37.99853516 C557.11689283 42.76621434 557.11689283 42.76621434 556 45 C604.65721023 45.09292097 653.31442065 45.17266945 701.97172546 45.17976379 C702.69199246 45.17987268 703.41225945 45.17998157 704.15435272 45.18009376 C719.8081034 45.18237855 735.46185316 45.18221718 751.11560376 45.17953635 C758.79231979 45.17823654 766.46903583 45.17747721 774.14575195 45.17700195 C774.90967306 45.17694546 775.67359417 45.17688897 776.46066441 45.17683076 C801.21679208 45.1752533 825.97271415 45.2093579 850.72878096 45.26198808 C876.17118488 45.31588876 901.61336608 45.33374814 927.05581851 45.30632879 C930.6502663 45.30247185 934.24471439 45.29902645 937.83916283 45.29583168 C938.54659422 45.29519018 939.25402561 45.29454869 939.98289432 45.29388775 C951.36576123 45.28462378 962.74823093 45.31329606 974.1310076 45.35619503 C985.57770288 45.39852384 997.02366841 45.39990281 1008.47041795 45.36234536 C1014.67160943 45.34319485 1020.87145392 45.34194616 1027.07252884 45.38863564 C1032.75164543 45.43100199 1038.4283529 45.4225653 1044.10739853 45.37395564 C1046.16007958 45.36531051 1048.21294142 45.37520795 1050.26541463 45.40566983 C1062.65291948 45.84999122 1062.65291948 45.84999122 1073.12916748 40.15000449 C1075.24450279 37.88736765 1077.11595014 35.4561199 1079 33 C1080.36221614 31.73367912 1081.75179154 30.49484623 1083.1875 29.3125 C1086.64132091 26.3651457 1089.81191251 23.20668769 1092.99609375 19.97265625 C1095.57857406 17.43044853 1098.30664285 15.08664791 1101.0546875 12.7265625 C1103.57670179 10.48814821 1105.92493014 8.10534559 1108.26171875 5.67578125 C1108.83535156 5.12277344 1109.40898437 4.56976562 1110 4 C1110.60046148 3.31558846 1111.20092297 2.63117692 1111.81958026 1.92602563 C1116.85152489 -1.12126219 1121.85255853 -0.54188554 1127.62499714 -0.49219131 C1128.92912572 -0.49680669 1130.23325431 -0.50142207 1131.57690194 -0.50617731 C1135.21128821 -0.51847379 1138.84522818 -0.50573692 1142.47958125 -0.48906477 C1146.42784877 -0.47534636 1150.37607029 -0.48480762 1154.32434672 -0.49137473 C1161.24885529 -0.49967811 1168.17322655 -0.49308039 1175.09771919 -0.4768219 C1185.39420887 -0.45271311 1195.69061169 -0.45147576 1205.98712445 -0.45498985 C1223.30621419 -0.46024966 1240.62524296 -0.44686391 1257.94431496 -0.42292023 C1275.09699619 -0.39926726 1292.24965205 -0.3838595 1309.40234947 -0.37950897 C1310.46810645 -0.37923401 1311.53386342 -0.37895906 1312.63191606 -0.37867576 C1318.04416579 -0.37732247 1323.45641553 -0.37611692 1328.8686653 -0.37496826 C1367.22227528 -0.36656244 1405.57585208 -0.33960135 1443.92944336 -0.30175781 C1481.19376448 -0.26503144 1518.45807652 -0.23669143 1555.72241211 -0.21972656 C1557.44481916 -0.21893741 1557.44481916 -0.21893741 1559.20202231 -0.21813231 C1570.73323868 -0.21285831 1582.26445513 -0.20775504 1593.79567163 -0.20277687 C1617.28693323 -0.19263151 1640.77819423 -0.1813465 1664.26945496 -0.16937256 C1665.34958949 -0.1688234 1666.42972402 -0.16827424 1667.5425899 -0.16770844 C1739.69507374 -0.13089416 1811.84753916 -0.06751201 1884 0 C1883.03878393 1.12610812 1882.07690561 2.25165098 1881.11474609 3.37695312 C1880.57917084 4.00380005 1880.04359558 4.63064697 1879.49179077 5.27648926 C1875.71729398 9.63727891 1871.55815682 13.55742864 1867.1875 17.3125 C1863.97666245 20.07618029 1860.97732835 22.98619596 1858 26 C1855.10408042 28.93118191 1852.19757429 31.76403174 1849.0625 34.4375 C1845.71074927 37.30172335 1842.59443244 40.36333716 1839.5 43.5 C1835.81005412 47.24030338 1832.02496302 50.7823935 1828.02734375 54.19140625 C1824.68256946 57.17528004 1821.58664843 60.40619732 1818.4375 63.59375 C1815.74716094 66.24959753 1812.93426475 68.70135432 1810.0625 71.15625 C1807.61075311 73.34796313 1805.31114427 75.66067104 1803 78 C1799.48152476 81.56138347 1795.87429588 84.89888084 1792.0703125 88.1484375 C1788.72732512 91.13820357 1785.6211568 94.35927187 1782.4921875 97.5703125 C1781.66976562 98.37210938 1780.84734375 99.17390625 1780 100 C1779.21267602 100.86230433 1778.42535205 101.72460867 1777.61416977 102.61304344 C1772.967634 106.41006753 1767.40278158 105.68208287 1761.6810962 105.62099248 C1760.41998636 105.62738291 1759.15887653 105.63377334 1757.85955124 105.64035742 C1754.34437288 105.65745088 1750.82990022 105.64327998 1747.3147576 105.62418725 C1743.48197282 105.60889284 1739.64927451 105.62265327 1735.81648767 105.63272163 C1729.06833199 105.64641639 1722.32038711 105.64141339 1715.57224192 105.62441591 C1705.47013924 105.59906981 1695.36818766 105.60254416 1685.2660647 105.61174879 C1668.05139425 105.62659453 1650.83680843 105.61769453 1633.62214851 105.59602737 C1616.17033861 105.57415832 1598.71857245 105.56316196 1581.26674843 105.56553841 C1580.16563306 105.56568187 1579.06451769 105.56582533 1577.93003519 105.56597314 C1572.31572366 105.56675498 1566.70141218 105.56771473 1561.08710069 105.56873732 C1520.42037645 105.57578014 1479.75369119 105.55860218 1439.08697891 105.52865028 C1398.80538872 105.49905283 1358.5238152 105.47977782 1318.2422142 105.47438622 C1316.99190424 105.47421416 1315.74159427 105.4740421 1314.45339612 105.47386482 C1303.03398785 105.47229886 1291.61457957 105.4708604 1280.19517126 105.46957495 C1251.80593012 105.46637769 1223.41668937 105.4615809 1195.02744865 105.45569897 C1193.08812689 105.45529909 1193.08812689 105.45529909 1191.1096269 105.45489113 C1149.89937588 105.44630224 1108.6891303 105.43109477 1067.47888374 105.41065693 C1066.81045508 105.41032548 1066.14202642 105.40999404 1065.45334234 105.40965255 C1045.10567776 105.39954902 1024.75801344 105.38895713 1004.41034916 105.37826971 C981.89309338 105.36644488 959.37583756 105.35470337 936.85858154 105.34332275 C935.84293369 105.34280901 935.84293369 105.34280901 934.80676769 105.34228488 C870.50207271 105.30978507 806.19737598 105.29073025 741.89267493 105.27515383 C739.16907454 105.27449311 736.44547414 105.27382851 733.72187375 105.27316374 C708.6587845 105.26704674 683.59569522 105.26108758 658.53260589 105.25532665 C657.86615786 105.25517345 657.19970982 105.25502024 656.51306639 105.2548624 C654.495241 105.25439859 652.47741562 105.25393484 650.45959024 105.25347109 C596.5886645 105.24108931 542.71773913 105.22737967 488.84681396 105.21276085 C486.28125466 105.21206465 483.71569537 105.21136938 481.15013608 105.21067504 C365.63280012 105.17940374 250.11547223 105.13271219 134.59814453 105.0793457 C133.51632877 105.07884603 132.434513 105.07834635 131.31991494 105.07783153 C77.21327617 105.05282847 23.10663783 105.02695813 -31 105 C-30.37836272 100.42382258 -29.57975024 96.17465908 -28.20922852 91.76220703 C-27.84116592 90.5679007 -27.47310333 89.37359436 -27.09388733 88.14309692 C-26.6889648 86.84797986 -26.28396891 85.55288574 -25.87890625 84.2578125 C-25.45539651 82.88970857 -25.03238808 81.52144938 -24.60984802 80.15304565 C-23.49216636 76.53770254 -22.368333 72.92430214 -21.24298096 69.31134033 C-19.91608784 65.04812048 -18.59552464 60.78293771 -17.27489376 56.51777458 C-16.23758863 53.16768699 -15.19896819 49.8180404 -14.15663147 46.46951294 C-9.35295167 31.00467692 -4.69671498 15.49915943 0 0 Z " fill="#1A1A1A" transform="translate(1133,1588)"/>
<path d="M0 0 C642.51 0 1285.02 0 1947 0 C1945.8108198 8.32426143 1944.60892716 16.59990698 1943.16015625 24.875 C1942.81565506 26.87107647 1942.47125737 28.8671708 1942.12695312 30.86328125 C1941.59759392 33.91871824 1941.06704389 36.97393829 1940.53442383 40.02880859 C1938.43380674 52.09684887 1936.47430163 64.15482326 1934.94776917 76.31079102 C1934.78111 77.60907837 1934.78111 77.60907837 1934.61108398 78.93359375 C1934.51649399 79.69728271 1934.42190399 80.46097168 1934.32444763 81.24780273 C1934 83 1934 83 1933 84 C1931.24460471 84.09800563 1929.48521555 84.12478347 1927.72708651 84.12467116 C1926.57285963 84.12702406 1925.41863275 84.12937696 1924.2294293 84.13180115 C1922.94177951 84.12929228 1921.65412971 84.1267834 1920.32746023 84.1241985 C1918.95344741 84.12506301 1917.57943482 84.12636633 1916.20542279 84.12807148 C1912.38855362 84.13151226 1908.57171019 84.12864074 1904.75484231 84.12483745 C1900.6024584 84.12179323 1896.4500778 84.1245268 1892.29769382 84.12654433 C1884.97830131 84.12929005 1877.65891656 84.12827539 1870.33952444 84.12488318 C1859.38211499 84.11982472 1848.42471112 84.12050636 1837.46730092 84.12234976 C1818.7972372 84.12532242 1800.1271766 84.12353471 1781.45711327 84.11920547 C1762.52449762 84.11483464 1743.59188359 84.11263204 1724.65926743 84.11310768 C1722.86874305 84.11315072 1722.86874305 84.11315072 1721.04204647 84.11319463 C1714.95596535 84.11335099 1708.86988423 84.11354294 1702.7838031 84.11374746 C1658.67781781 84.11515675 1614.57183373 84.11171798 1570.46584892 84.10573006 C1559.55169003 84.10425091 1548.63753113 84.10278958 1537.72337222 84.10139394 C1536.70572396 84.10126379 1536.70572396 84.10126379 1535.66751715 84.10113101 C1504.25737471 84.09713569 1472.84723231 84.0957024 1441.43708965 84.09492797 C1439.38355472 84.09487721 1437.33001978 84.09482524 1435.27648485 84.09477296 C1422.89386773 84.09445887 1410.5112506 84.0941715 1398.12863347 84.09391499 C1367.34362695 84.09327609 1336.55862044 84.0923166 1305.77361393 84.09113979 C1305.07272985 84.09111316 1304.37184577 84.09108653 1303.64972278 84.09105909 C1258.24465626 84.08933112 1212.83958995 84.08628314 1167.43452358 84.08213139 C1166.34690009 84.08203195 1166.34690009 84.08203195 1165.2373044 84.08193051 C1143.16463442 84.07990977 1121.09196445 84.0777914 1099.01929447 84.07565394 C1074.59302249 84.073289 1050.16675051 84.0709407 1025.74047852 84.06866455 C1025.00598401 84.06859605 1024.2714895 84.06852755 1023.51473759 84.06845698 C953.77026939 84.06195805 884.02580114 84.05814638 814.28133272 84.05503077 C811.3276461 84.05489862 808.37395949 84.0547657 805.42027287 84.05463275 C778.24006112 84.05340936 751.05984938 84.05221752 723.87963763 84.05106533 C723.15689897 84.05103469 722.43416031 84.05100405 721.68952047 84.05097248 C719.50126232 84.05087972 717.31300416 84.05078697 715.124746 84.05069422 C656.00595539 84.04818829 596.88716479 84.04540708 537.76837419 84.04244758 C535.6824271 84.04234323 533.59648 84.04223909 531.5105329 84.04213501 C463.75476695 84.03875345 395.99900106 84.03487599 155.63061523 84.01586914 C154.45714902 84.01576921 153.28368281 84.01566927 152.07465702 84.01556631 C93.38310466 84.01056561 34.69155232 84.00539152 -24 84 C-23.38014676 81.49639429 -22.75870901 78.99319886 -22.13639832 76.49020386 C-21.96390296 75.79279681 -21.79140761 75.09538977 -21.61368513 74.37684917 C-20.09402784 68.27319537 -18.42544161 62.21765553 -16.6756134 56.17581177 C-16.48200541 55.50614506 -16.28839741 54.83647835 -16.0889225 54.14651871 C-15.89071089 53.46137066 -15.69249928 52.77622261 -15.48828125 52.0703125 C-15.07022093 50.61828944 -14.65235284 49.16621103 -14.23466492 47.71408081 C-13.37004235 44.71040451 -12.50352585 41.70728379 -11.63549805 38.70458984 C-10.52259429 34.85443307 -9.41403031 31.00304242 -8.30675983 27.15126228 C-7.44953156 24.17065911 -6.59037113 21.19061574 -5.73058128 18.21075058 C-5.32058005 16.78910437 -4.91111271 15.36730408 -4.50219154 13.94534683 C-3.93478271 11.9735818 -3.36484892 10.00256459 -2.79418945 8.03173828 C-2.47094193 6.91195587 -2.1476944 5.79217346 -1.81465149 4.63845825 C-1 2 -1 2 0 0 Z " fill="#000000" transform="translate(354,275)"/>
<path d="M0 0 C683.43 0 1366.86 0 2071 0 C2069.87503365 6.7497981 2069.87503365 6.7497981 2068.51635742 9.98461914 C2068.21481247 10.71141373 2067.91326752 11.43820831 2067.60258484 12.18702698 C2067.27353653 12.96190964 2066.94448822 13.7367923 2066.60546875 14.53515625 C2066.25801102 15.36792587 2065.91055328 16.2006955 2065.55256653 17.05870056 C2064.43684835 19.72917996 2063.31245954 22.3959023 2062.1875 25.0625 C2061.47400994 26.76472283 2060.76111502 28.46719524 2060.04882812 30.16992188 C2057.70046914 35.78047144 2055.35017461 41.39021073 2053 47 C2047.06 61.355 2047.06 61.355 2041 76 C1360.54 76 680.08 76 -21 76 C-14.62552065 50.50208262 -7.16471845 25.28724159 0 0 Z " fill="#1A1A1A" transform="translate(210,775)"/>
<path d="M0 0 C668.25 0 1336.5 0 2025 0 C2024.36687869 7.5974557 2023.66985519 15.05173193 2022.58984375 22.578125 C2022.45808243 23.51557556 2022.32632111 24.45302612 2022.19056702 25.41888428 C2021.77603016 28.3630449 2021.35685731 31.30652255 2020.9375 34.25 C2020.65268533 36.26688341 2020.36817759 38.28381018 2020.08398438 40.30078125 C2019.39286131 45.20102811 2018.69758475 50.10066901 2018 55 C1957.43107359 55.06600673 1896.86214436 55.12924002 1836.29321289 55.19042969 C1835.10802303 55.19162726 1833.92283317 55.19282483 1832.70172847 55.19405869 C1745.29972723 55.28232304 1657.89771791 55.36978626 1453.90441443 55.50686803 C1451.79203741 55.50811872 1449.67966038 55.50937196 1447.56728336 55.51062604 C1387.7123229 55.54615609 1327.85736134 55.57935825 1268.00239789 55.60944313 C1265.7871021 55.61055661 1263.57180631 55.61167023 1261.35651052 55.61278395 C1260.62483722 55.61315176 1259.89316391 55.61351957 1259.13931868 55.61389853 C1231.62728745 55.62773501 1204.1152565 55.64210342 1176.60322571 55.6567893 C1173.61398613 55.65838443 1170.62474656 55.6599735 1167.63550698 55.66155707 C1097.06842766 55.69894502 1026.50137341 55.74590022 955.93432617 55.82397461 C955.19146684 55.82479583 954.4486075 55.82561704 953.68323727 55.82646314 C928.97955151 55.85378768 904.2758668 55.8820405 879.57218223 55.91042129 C857.25150939 55.93606152 834.93083622 55.96136849 812.61016178 55.98557663 C811.87692493 55.98637201 811.14368809 55.98716738 810.38823194 55.98798686 C764.4743212 56.03770478 718.56041638 56.07298827 672.64648342 56.09367752 C671.58293419 56.09415963 671.58293419 56.09415963 670.49789912 56.09465147 C639.36013169 56.10875479 608.22236395 56.11984688 577.08459428 56.1274948 C564.55801028 56.13058545 552.03142641 56.13412222 539.5048426 56.13790329 C537.42782644 56.1385265 535.35081028 56.13913526 533.27379411 56.13974245 C501.49386234 56.14913648 469.7139763 56.16849617 437.9340775 56.21672726 C436.90563807 56.21828785 436.90563807 56.21828785 435.85642209 56.21987997 C424.82677826 56.23667772 413.79713574 56.25430487 402.76749344 56.27207511 C357.58754156 56.34486552 312.4077101 56.38148155 267.22768562 56.36348785 C261.08486674 56.36105075 254.94204778 56.35904221 248.79922867 56.35729218 C247.59501645 56.35693361 246.39080422 56.35657504 245.15010072 56.35620561 C226.04942635 56.35163023 206.94904843 56.38751725 187.84845492 56.44011835 C169.08583907 56.49096275 150.32360905 56.4993513 131.56095696 56.46198176 C120.54812443 56.44134364 109.53651232 56.45387739 98.52382114 56.51460402 C91.21962605 56.55162969 83.91630826 56.54552283 76.61214111 56.50361287 C72.46457514 56.4810456 68.319391 56.47744387 64.17200426 56.52682294 C60.40847338 56.57128533 56.6492916 56.56054327 52.88593414 56.50571515 C50.90082387 56.49098171 48.91554191 56.53505788 46.93092295 56.58161386 C41.51264728 56.45275034 38.30062303 56.23562172 34.27583404 52.41197983 C31.96191899 49.36518029 29.95568048 46.28557277 28 43 C26.81277724 41.25908434 25.6172455 39.52375829 24.40795898 37.7980957 C23.26704828 36.09307584 22.12981656 34.385589 20.99609375 32.67578125 C20.38733902 31.76289841 19.77858429 30.85001556 19.15138245 29.9094696 C17.88530537 28.00919722 16.62090132 26.10780913 15.3581543 24.20532227 C13.41444396 21.2777738 11.46443351 18.35449405 9.51367188 15.43164062 C8.27827743 13.57576602 7.04323782 11.71965514 5.80859375 9.86328125 C5.22436142 8.98738846 4.64012909 8.11149567 4.03819275 7.20906067 C3.50666092 6.40699692 2.97512909 5.60493317 2.42749023 4.77856445 C1.95721909 4.07085403 1.48694794 3.36314362 1.00242615 2.63398743 C0 1 0 1 0 0 Z " fill="#1A1A1A" transform="translate(292,142)"/>
<path d="M0 0 C1.01601376 -0.00583353 2.03202753 -0.01166706 3.07882959 -0.01767737 C6.49444383 -0.02990121 9.90830997 0.0008304 13.3237915 0.03123474 C15.81987346 0.0313117 18.31595663 0.0287417 20.81203365 0.02378082 C26.29841214 0.01902073 31.7842558 0.03318837 37.27054405 0.06344795 C45.64475966 0.10943985 54.01877836 0.11952101 62.39310598 0.12333982 C76.9688206 0.13099549 91.54434329 0.16740367 106.1199646 0.2184906 C120.9235664 0.27019974 135.72711592 0.30898313 150.53079224 0.33128357 C151.46389428 0.33269455 152.39699632 0.33410553 153.35837419 0.33555926 C158.14599034 0.34272503 162.93360682 0.34964889 167.72122347 0.35647225 C177.78557165 0.37091315 187.84991667 0.3872781 197.91426086 0.4042511 C198.94706863 0.40599228 199.9798764 0.40773346 201.04398137 0.40952741 C217.49029104 0.43759092 233.93657433 0.47362565 250.38285828 0.51393127 C251.52956992 0.51673897 252.67628157 0.51954666 253.85774205 0.52243944 C258.58425996 0.53403165 263.31077778 0.54566475 268.03729552 0.5573246 C318.51281355 0.68181226 368.98831525 0.77738507 419.46392822 0.85276794 C420.71899137 0.85464455 420.71899137 0.85464455 421.99940932 0.85655907 C442.73016594 0.88754431 463.46092365 0.91777013 484.19168186 0.94767353 C516.67680218 0.99453391 549.16192055 1.04273513 581.64703849 1.09121858 C585.17135843 1.09647852 588.69567837 1.10173167 592.21999833 1.10697879 C672.23062452 1.22612354 752.24121713 1.36294279 832.25180506 1.50528415 C835.42311422 1.51092482 838.59442338 1.51656023 841.76573255 1.52219579 C880.01978733 1.59017859 918.27384096 1.65878583 956.52789307 1.72825623 C955.44680815 10.54187453 955.44680815 10.54187453 954.65509033 13.90376282 C954.48687775 14.62707291 954.31866516 15.350383 954.14535522 16.09561157 C953.96350677 16.85852005 953.78165833 17.62142853 953.59429932 18.40745544 C953.40068817 19.23446457 953.20707703 20.06147369 953.00759888 20.9135437 C952.37262092 23.62099079 951.73166153 26.32698029 951.09039307 29.03294373 C950.64551988 30.92237059 950.20094435 32.81186755 949.75665283 34.70143127 C948.8278708 38.64751841 947.8962537 42.59292162 946.96246338 46.53782654 C945.76409762 51.60100867 944.57169544 56.6655721 943.38124084 61.73061943 C942.4652861 65.62572456 941.54679881 69.52022885 940.62747192 73.41453934 C940.18664831 75.28275924 939.74648138 77.15113422 939.30697632 79.01966476 C938.69430355 81.62218097 938.07837149 84.22390362 937.46148682 86.82542419 C937.27963837 87.60047806 937.09778992 88.37553192 936.91043091 89.17407227 C935.64230587 94.49943062 935.64230587 94.49943062 934.52789307 96.72825623 C573.17789307 96.72825623 211.82789307 96.72825623 -160.47210693 96.72825623 C-160.47210693 96.06825623 -160.47210693 95.40825623 -160.47210693 94.72825623 C-157.96125508 93.05435499 -155.4470686 91.50369699 -152.84710693 89.97825623 C-151.1792942 88.98016882 -149.51267817 87.98007967 -147.84710693 86.97825623 C-146.96538818 86.44845154 -146.08366943 85.91864685 -145.17523193 85.37278748 C-140.68871044 82.64327079 -136.26923735 79.81049226 -131.84710693 76.97825623 C-124.02018314 71.97559401 -116.16630871 67.01917921 -108.28460693 62.10325623 C-98.75815604 56.16075788 -89.25396594 50.1844874 -79.76654053 44.17991638 C-75.83664735 41.69352089 -71.90422661 39.21112848 -67.97210693 36.72825623 C-66.388762 35.72827459 -64.80542866 34.72827461 -63.22210693 33.72825623 C-60.05544027 31.72825623 -56.8887736 29.72825623 -53.72210693 27.72825623 C-52.93763184 27.23277283 -52.15315674 26.73728943 -51.34490967 26.22679138 C-49.76899345 25.23152708 -48.19298503 24.23640877 -46.61688232 23.24143982 C-42.54428058 20.67020176 -38.47353938 18.09608665 -34.40570068 15.51731873 C-33.56909912 14.98751404 -32.73249756 14.45770935 -31.87054443 13.91184998 C-30.29311304 12.91281009 -28.71623867 11.91288981 -27.14007568 10.91184998 C-25.71667818 10.01086964 -24.28887357 9.1167977 -22.85586762 8.2311793 C-21.28850467 7.24298197 -19.74084503 6.22269067 -18.21674705 5.1689896 C-11.98974995 1.04374088 -7.40055221 -0.13430066 0 0 Z " fill="#1A1A1A" transform="translate(2379.4721069335938,500.27174377441406)"/>
<path d="M0 0 C1.17021253 -0.00692307 2.34042507 -0.01384613 3.54609859 -0.02097899 C6.80058366 -0.03414383 10.05368093 -0.0203526 13.30805556 0.00468981 C16.84589202 0.02529962 20.38361461 0.01106951 23.92147362 0.00122488 C30.12385631 -0.01122032 36.32589379 -0.00135089 42.52823639 0.02305412 C51.75083838 0.05924255 60.97322239 0.06107104 70.19588243 0.05580219 C85.70922619 0.04791554 101.22241671 0.06797941 116.73571587 0.10390663 C132.09848857 0.13939415 147.46119746 0.16249933 162.82401085 0.16902351 C163.77879134 0.16943595 164.73357184 0.16984839 165.71728507 0.17027333 C170.56602221 0.17230329 175.4147594 0.17411161 180.26349665 0.17583458 C214.61788789 0.1884411 248.97219574 0.22887651 283.32653999 0.28565025 C316.70381412 0.34074569 350.08106544 0.38325282 383.45837593 0.40869713 C385.00129898 0.40988086 385.00129898 0.40988086 386.57539219 0.41108851 C396.90505685 0.41899955 407.23472169 0.42665445 417.56438668 0.43412167 C438.60759306 0.44933944 459.65079794 0.46626696 480.69400215 0.48422813 C481.66156028 0.48505187 482.62911841 0.48587561 483.62599648 0.48672432 C548.25114724 0.54193955 612.87625171 0.63701207 677.50134468 0.73828697 C677.35436693 2.14791804 677.20457373 3.55725569 677.05364132 4.96646881 C676.97053638 5.75132506 676.88743145 6.53618132 676.80180818 7.3448211 C676.32148857 11.17100501 675.49612339 14.90406188 674.6505146 18.66357994 C674.46481911 19.50553917 674.27912361 20.3474984 674.08780098 21.21497154 C672.37736346 28.92928167 670.60992539 36.63106606 668.82677937 44.32886124 C667.63306306 49.48220971 666.45715875 54.63817908 665.32385445 59.8051815 C664.22124637 64.83082887 663.07447881 69.84450987 661.89675522 74.8530674 C661.45849574 76.74955061 661.03540554 78.64961266 660.62865448 80.55310249 C658.05486055 92.5288587 655.36437581 99.99995909 645.21410924 107.29979054 C643.37745002 108.7579247 643.37745002 108.7579247 641.6712415 110.92022854 C637.66178203 115.61934379 634.73520424 118.29150971 628.45270771 118.85607344 C626.09690373 118.89852034 623.73989299 118.89174424 621.38415623 118.84571743 C620.07541226 118.85610203 618.7666683 118.86648663 617.41826543 118.87718591 C613.78892614 118.90472142 610.16186736 118.87631416 606.53269866 118.83868271 C602.58361376 118.80770225 598.63475401 118.82912546 594.68562323 118.84388012 C587.76575735 118.86252782 580.84658842 118.84777901 573.92680359 118.81113625 C563.63750526 118.75680212 553.34864602 118.75411557 543.05923038 118.76201414 C525.75072366 118.77383788 508.44252621 118.74377216 491.1341095 118.68985748 C473.99588618 118.63660975 456.85779167 118.60196513 439.71948624 118.59218216 C438.65400422 118.5915635 437.5885222 118.59094485 436.49075285 118.59030744 C431.07973906 118.58726246 425.66872515 118.58455 420.25771112 118.58196556 C381.92843423 118.56306031 343.59932561 118.50241987 305.27014351 118.41724205 C268.03317345 118.33458691 230.79624943 118.2708321 193.55920601 118.23267174 C192.41146075 118.231488 191.26371549 118.23030427 190.08119007 118.22908466 C178.55509244 118.21721801 167.02899447 118.20573568 155.50289618 118.19453493 C132.02276738 118.17170882 108.54264159 118.14631755 85.06251717 118.11937523 C83.98293179 118.11813962 82.90334642 118.11690401 81.79104634 118.11563096 C9.69440915 118.03282069 -62.40213473 117.89021337 -134.49865532 117.73828697 C-133.54678839 116.62109418 -132.59396618 115.50471526 -131.64074516 114.3886776 C-131.11024559 113.76690636 -130.57974602 113.14513512 -130.0331707 112.50452232 C-124.97824446 106.68627538 -119.3057943 101.49371505 -113.46349907 96.48438072 C-110.68441018 94.01469337 -108.11005036 91.35925375 -105.50256157 88.71094322 C-102.91619381 86.16490868 -100.18330252 83.81807141 -97.43224907 81.45313072 C-95.54370935 79.77824398 -93.76709884 78.0388111 -91.99865532 76.23828697 C-89.60812365 73.80438965 -87.14819269 71.52473138 -84.56115532 69.30078697 C-81.75289185 66.88210918 -79.09894939 64.37929015 -76.49865532 61.73828697 C-73.2983601 58.48798714 -69.95640956 55.49104452 -66.49865532 52.51953697 C-64.41528454 50.66403487 -62.45584325 48.72605596 -60.49865532 46.73828697 C-57.2983601 43.48798714 -53.95640956 40.49104452 -50.49865532 37.51953697 C-47.70979999 35.03571269 -45.12178549 32.3711726 -42.50256157 29.71094322 C-39.91619381 27.16490868 -37.18330252 24.81807141 -34.43224907 22.45313072 C-31.93571559 20.23903336 -29.62097423 17.87194654 -27.28381157 15.49219322 C-24.82255798 13.07402504 -22.21957185 10.83995194 -19.58849907 8.60938072 C-17.30257515 6.67184139 -17.30257515 6.67184139 -15.08670604 3.66748655 C-10.72655068 -0.66006504 -5.83335151 -0.08438241 0 0 Z " fill="#1A1A1A" transform="translate(2441.498655319214,1416.261713027954)"/>
<path d="M0 0 C3.73359021 0.04821614 7.46660694 0.01486351 11.20031486 -0.00808486 C17.74206531 -0.0370871 24.28203159 -0.01416456 30.82357446 0.04285005 C40.55018719 0.12738932 50.2756764 0.13154767 60.00258954 0.11926221 C76.36466946 0.10087169 92.72595761 0.14762991 109.0878071 0.23150591 C125.28824952 0.31434163 141.48836218 0.36822837 157.68901483 0.3834453 C159.19989801 0.38488883 159.19989801 0.38488883 160.74130408 0.38636153 C165.85663581 0.39109818 170.97196782 0.39531756 176.08730015 0.39933779 C212.32031322 0.42874448 248.55289551 0.52306952 284.78566591 0.65557436 C319.98551239 0.78415318 355.18524101 0.88332515 390.38527528 0.94268373 C392.01276765 0.94544578 392.01276765 0.94544578 393.67313866 0.94826363 C404.56909295 0.96672289 415.46504816 0.98458429 426.36100416 1.00200766 C448.55736885 1.03751475 470.75372586 1.07701228 492.95007936 1.11892275 C494.48091162 1.12180583 494.48091162 1.12180583 496.04266978 1.12474717 C564.19489257 1.25355891 632.34687639 1.47539206 700.49880068 1.7117267 C698.90865673 5.68978043 697.31813999 9.66768501 695.72756044 13.64556459 C695.28127542 14.7620463 694.8349904 15.878528 694.3751816 17.02884248 C690.75571181 26.07995391 687.10613789 35.11844497 683.43630068 44.1492267 C682.16122351 47.28841261 680.88652806 50.4277533 679.61208193 53.56719545 C679.28504274 54.37270845 678.95800356 55.17822145 678.62105409 56.00814394 C676.00149737 62.46399441 673.39549616 68.92525963 670.79176943 75.38750795 C669.61893903 78.29554723 668.44588932 81.20349794 667.27275697 84.11141542 C666.5084085 86.00759813 665.74495642 87.90414243 664.98241274 89.80105165 C663.91983582 92.4440744 662.85417922 95.08583573 661.78786318 97.7273517 C661.46879503 98.52341325 661.14972688 99.31947481 660.82099001 100.13965944 C658.61261384 105.59791354 658.61261384 105.59791354 657.49880068 106.7117267 C655.85463014 106.80932202 654.20623271 106.83619939 652.5591682 106.8359252 C651.48042459 106.83817249 650.40168098 106.84041978 649.29024817 106.84273518 C648.08801175 106.84010816 646.88577534 106.83748115 645.64710752 106.83477453 C644.37798504 106.83592837 643.10886256 106.83708222 641.80128182 106.83827103 C638.24657439 106.84136021 634.69189526 106.83814835 631.13718992 106.83399289 C627.28209829 106.83057577 623.4270097 106.83292621 619.57191751 106.83457038 C612.80482868 106.83665014 606.03774862 106.83499014 599.2706608 106.83093218 C589.20813626 106.82491476 579.14561728 106.82459473 569.08309127 106.82547416 C552.15903669 106.82679032 535.234986 106.82343813 518.31093256 106.81745676 C501.54570028 106.81154666 484.78046961 106.80769221 468.0152363 106.80660394 C466.45361976 106.80650083 466.45361976 106.80650083 464.86045541 106.80639564 C459.57369064 106.80605732 454.28692587 106.80575594 449.0001611 106.80546877 C411.52062123 106.80336644 374.04108349 106.79662375 336.56154482 106.78716615 C300.14292514 106.77798686 263.72430604 106.77090073 227.30568544 106.76665834 C226.18378098 106.76652682 225.06187651 106.76639529 223.90597495 106.76625978 C212.63970123 106.7649413 201.3734275 106.76366548 190.10715378 106.76242092 C167.15494413 106.75988447 144.20273451 106.75706322 121.25052492 106.75406984 C119.66744758 106.75386391 119.66744758 106.75386391 118.05238888 106.75365381 C47.53452527 106.74444782 -22.98333718 106.72860201 -93.50119932 106.7117267 C-91.96666862 102.71317858 -90.1284651 99.43282696 -87.71994932 95.87969545 C-87.16591429 95.05698908 -87.16591429 95.05698908 -86.60068663 94.21766237 C-85.81275956 93.04813597 -85.02287094 91.87992906 -84.23117979 90.7129474 C-82.15443084 87.65058774 -80.09317834 84.5778496 -78.03244932 81.50469545 C-77.42723448 80.60277971 -77.42723448 80.60277971 -76.80979307 79.68264345 C-73.95065213 75.41116558 -71.18123042 71.09717686 -68.50119932 66.7117267 C-64.0312433 59.41406371 -59.26573958 52.31852175 -54.50119932 45.2117267 C-48.84076311 36.76714319 -43.24812212 28.29881126 -37.93479307 19.62969545 C-37.55089617 19.06305181 -37.16699927 18.49640818 -36.77146914 17.91259352 C-35.34324129 15.59254492 -35.34324129 15.59254492 -34.30314602 12.32580034 C-28.22899102 -2.65684837 -13.9715369 -0.23852047 0 0 Z " fill="#1A1A1A" transform="translate(1453.5011993246153,1086.288273299113)"/>
<path d="M0 0 C1.10668253 0.00015598 2.21336506 0.00031196 3.35358342 0.00047267 C4.62727177 -0.00177462 5.90096012 -0.00402192 7.21324509 -0.00633731 C8.64802039 -0.003771 10.08279554 -0.00111406 11.51757052 0.00162334 C13.03145089 0.0008846 14.54533111 -0.00029301 16.05921083 -0.00187316 C20.25790176 -0.00496294 24.45656874 -0.00174999 28.65525789 0.00240497 C33.20844016 0.00582161 37.76161986 0.00347175 42.31480261 0.00182748 C50.30757479 -0.00025243 58.30033955 0.00140799 66.29311087 0.00546569 C78.17820589 0.01148272 90.06329619 0.01180317 101.94839245 0.0109237 C121.93773925 0.0096075 141.92708275 0.01295992 161.91642859 0.01894111 C181.71836332 0.02485108 201.52029667 0.02870563 221.32223227 0.02979392 C222.55185313 0.02986266 223.78147398 0.0299314 225.04835607 0.03000222 C231.29256695 0.03034054 237.53677783 0.03064193 243.78098871 0.0309291 C288.04887325 0.03303146 332.31675606 0.03977347 376.58463958 0.04923171 C387.31978768 0.05152333 398.05493579 0.05379867 408.79008391 0.05600661 C409.45585945 0.05614356 410.12163498 0.05628051 410.80758553 0.05642161 C441.74541344 0.06276318 472.6832415 0.06649047 503.62106989 0.06954141 C505.62904795 0.06973947 507.63702601 0.06993867 509.64500408 0.07013809 C522.95174019 0.07145785 536.2584763 0.07273239 549.56521242 0.07397695 C576.6743849 0.0765134 603.78355735 0.07933465 630.89272979 0.08232803 C632.76252686 0.08253396 632.76252686 0.08253396 634.67009762 0.08274406 C717.96070415 0.09195014 801.25130968 0.10779596 884.54191497 0.12467116 C883.31603944 5.44291881 882.0897883 10.76107966 880.86321166 16.07916564 C880.4473102 17.88262476 880.03150562 19.68610623 879.61580565 21.48961181 C876.66643444 34.28499961 873.69556493 47.07453424 870.64543059 59.84635085 C870.00986466 62.50894017 869.37740769 65.17225811 868.74503997 67.83560866 C868.33375613 69.56221274 867.92230579 71.28877716 867.51066497 73.01529616 C867.23265044 74.18660079 867.23265044 74.18660079 866.94901946 75.38156814 C866.240758 78.34060681 865.50464494 81.23648125 864.54191497 84.12467116 C566.55191497 84.12467116 268.56191497 84.12467116 -38.45808503 84.12467116 C-35.08324112 74.00013944 -35.08324112 74.00013944 -33.149003 69.57096023 C-32.71780153 68.57832168 -32.28660005 67.58568313 -31.84233186 66.56296462 C-31.38295228 65.51598403 -30.9235727 64.46900344 -30.45027253 63.39029616 C-29.96535341 62.27644546 -29.48043428 61.16259475 -28.98082063 60.01499099 C-27.43518526 56.46663075 -25.88433035 52.92058198 -24.33308503 49.37467116 C-22.80941272 45.88263924 -21.28683822 42.39013055 -19.76454255 38.89749831 C-18.76818611 36.61209433 -17.77108234 34.32701601 -16.77320955 32.0422737 C-13.18170633 23.81252299 -9.63513679 15.56432186 -6.14164827 7.29245681 C-5.80021791 6.48910903 -5.45878755 5.68576125 -5.10701082 4.8580696 C-4.81077821 4.15696059 -4.51454561 3.45585158 -4.20933625 2.73349685 C-3.03550155 0.21969671 -2.89963414 0.14706601 0 0 Z " fill="#1A1A1A" transform="translate(2387.4580850340426,774.8753288350999)"/>
<path d="M0 0 C1.17947149 -0.00898917 2.35894297 -0.01797835 3.57415602 -0.02723992 C4.86856248 -0.01673186 6.16296895 -0.00622381 7.49659985 0.00460267 C8.89235579 0.00164404 10.28810892 -0.00307039 11.68385372 -0.00938332 C15.53604933 -0.02168405 19.38782412 -0.00893932 23.23998845 0.00772921 C27.42437424 0.02144407 31.60871653 0.01198704 35.79311073 0.00541925 C43.13218595 -0.00288523 50.47113162 0.0037155 57.81019181 0.01997209 C68.72313802 0.04407809 79.63600228 0.04531849 90.54897026 0.04180413 C108.90484862 0.03654399 127.26066946 0.04993137 145.61653107 0.07387376 C163.79633209 0.09752583 181.97610916 0.1129343 200.15592545 0.11728501 C201.28545438 0.11755997 202.41498331 0.11783493 203.57874038 0.11811822 C209.31483217 0.11947152 215.05092398 0.12067707 220.78701582 0.12182572 C261.43668264 0.1302318 302.08631816 0.15719357 342.73596734 0.19503617 C382.23140835 0.23176189 421.7268408 0.26010223 461.22229546 0.27706742 C462.4392934 0.27759353 463.65629134 0.27811963 464.910168 0.27866168 C477.13154078 0.28393567 489.35291362 0.28903894 501.57428652 0.29401712 C526.47157963 0.30416251 551.36887218 0.31544752 576.26616448 0.32742143 C577.98334502 0.32824517 577.98334502 0.32824517 579.73521607 0.32908555 C656.20789162 0.36590051 732.68054981 0.42928274 809.15320367 0.49679399 C809.03997818 2.60329699 808.9130243 4.70906559 808.78015679 6.81442094 C808.71090997 7.98713044 808.64166314 9.15983994 808.57031792 10.3680861 C808.15320367 13.49679399 808.15320367 13.49679399 806.12195367 16.41476274 C805.14226617 17.10183305 804.16257867 17.78890336 803.15320367 18.49679399 C802.54218804 18.96424027 801.93117242 19.43168656 801.30164117 19.91329789 C799.11372818 21.58698893 796.88850832 23.19950668 794.65320367 24.80929399 C787.58639903 29.95427918 780.59112786 35.17930806 773.65320367 40.49679399 C767.03409884 45.56378677 760.37803339 50.57097225 753.65320367 55.49679399 C745.14084173 61.73477879 736.73207335 68.10264422 728.34851617 74.51241899 C727.53933226 75.10172122 726.73014835 75.69102345 725.89644372 76.29818332 C723.10083536 78.40398008 723.10083536 78.40398008 720.95415545 81.03111613 C713.01245864 89.16379104 704.5485465 89.58626557 693.60780657 89.76093045 C689.01897894 89.80661319 684.43234899 89.76909504 679.84371489 89.71945591 C675.62180325 89.6849327 671.40014459 89.70885568 667.17817926 89.72523081 C659.78546726 89.74591948 652.39356188 89.72961628 645.00094384 89.68884873 C634.00864004 89.62839905 623.01684285 89.62549968 612.02440313 89.63426862 C593.53200291 89.64739655 575.03996046 89.61403611 556.54766434 89.55409455 C538.24048817 89.49490528 519.93346105 89.45643131 501.62618989 89.44556642 C499.91816473 89.44453532 499.91816473 89.44453532 498.17563402 89.4434834 C492.39273369 89.44010002 486.60983324 89.4370862 480.82693265 89.43421464 C439.87658761 89.41321573 398.92643716 89.34585682 357.97620171 89.25118852 C318.1959388 89.15933115 278.41572914 89.08850145 238.6353814 89.04611039 C237.40897728 89.04479513 236.18257316 89.04347987 234.91900528 89.04212475 C222.60284599 89.02893944 210.2866863 89.01618132 197.97052624 89.00373616 C172.88153896 88.97837466 147.79255515 88.95016214 122.70357293 88.92022538 C121.5500458 88.91885248 120.39651868 88.91747958 119.20803619 88.91606508 C42.18967777 88.82407294 -34.82857276 88.66562261 -111.84679633 88.49679399 C-111.84679633 87.83679399 -111.84679633 87.17679399 -111.84679633 86.49679399 C-109.90352125 84.83376935 -107.9490685 83.28433814 -105.90929633 81.74679399 C-104.62140475 80.75646761 -103.33501314 79.76418829 -102.04992133 78.77023149 C-101.02414985 77.97697465 -101.02414985 77.97697465 -99.97765571 77.16769242 C-96.31944014 74.29912834 -92.74023555 71.33586892 -89.15929633 68.37179399 C-88.43307075 67.77149369 -87.70684516 67.1711934 -86.95861274 66.55270219 C-85.55221371 65.38974907 -84.14611391 64.22643395 -82.74035102 63.06271195 C-75.11626907 56.75780458 -67.42929981 50.52945159 -59.74889594 44.29342484 C-55.94214597 41.20187971 -52.14023671 38.10467285 -48.34679633 34.99679399 C-41.90545515 29.72047864 -35.43983994 24.47413371 -28.97570258 19.22579789 C-26.79675049 17.45614896 -24.61854188 15.68558876 -22.44054633 13.91476274 C-21.72342475 13.33178422 -21.00630317 12.7488057 -20.26745063 12.14816117 C-18.89901567 11.03566396 -17.53068283 9.92304114 -16.16247016 8.81027055 C-15.53880561 8.30334672 -14.91514106 7.79642289 -14.27257758 7.27413774 C-13.7302851 6.83319779 -13.18799262 6.39225785 -12.62926704 5.93795609 C-12.0410517 5.4623726 -11.45283637 4.9867891 -10.84679633 4.49679399 C-9.73503641 3.4775776 -9.73503641 3.4775776 -8.60081669 2.43777098 C-5.39466925 0.1781441 -3.87555862 -0.00237947 0 0 Z " fill="#000000" transform="translate(1466.8467963337898,437.5032060146332)"/>
<path d="M0 0 C219.45 0 438.9 0 665 0 C659.54544135 23.63642082 654.09066482 47.27117464 648.54003906 70.88500977 C647.64915895 74.67551208 646.76143957 78.46674851 645.87424469 82.25811481 C645.17762322 85.23262911 644.47879983 88.20662279 643.77934265 91.18047142 C643.44997639 92.58253694 643.1214406 93.98479783 642.79377747 95.38726234 C642.3446823 97.30861089 641.89215903 99.22915721 641.43945312 101.1496582 C641.05714539 102.77856743 641.05714539 102.77856743 640.66711426 104.44038391 C640 107 640 107 639 109 C419.55 109 200.1 109 -26 109 C-10.23852848 41.10443038 -10.23852848 41.10443038 -6.94726562 27.09570312 C-6.45979278 25.01882304 -5.97356609 22.94165024 -5.48828125 20.86425781 C-4.74979692 17.70320752 -4.00813131 14.54292012 -3.265625 11.3828125 C-3.04908264 10.45324738 -2.83254028 9.52368225 -2.60943604 8.56594849 C-2.41122253 7.72579193 -2.21300903 6.88563538 -2.00878906 6.02001953 C-1.83704163 5.2873587 -1.66529419 4.55469788 -1.48834229 3.79983521 C-1 2 -1 2 0 0 Z " fill="#1A1A1A" transform="translate(2529,1104)"/>
<path d="M0 0 C1.19582546 0.00023397 1.19582546 0.00023397 2.415809 0.00047267 C3.33400989 -0.00177462 4.25221077 -0.00402192 5.19823593 -0.00633731 C6.73206051 -0.00239679 6.73206051 -0.00239679 8.29687145 0.00162334 C9.91690839 -0.00010743 9.91690839 -0.00010743 11.56967336 -0.00187316 C15.23762702 -0.00454843 18.90553796 -0.00001023 22.57348945 0.00441665 C25.21010109 0.00398113 27.84670986 0.00314897 30.48332092 0.00182748 C36.24102362 -0.00025209 41.99871603 0.00140743 47.75641754 0.00546569 C56.31800176 0.01148355 64.87957944 0.0118031 73.44116538 0.0109237 C87.84086175 0.0096076 102.24055353 0.01295953 116.64024856 0.01894111 C130.90466708 0.02485135 145.16908369 0.02870568 159.43350342 0.02979392 C160.76221369 0.02989703 160.76221369 0.02989703 162.11776661 0.03000222 C166.61604634 0.03034054 171.11432609 0.03064193 175.61260583 0.0309291 C207.50174424 0.03303139 239.39088016 0.03977397 271.28001716 0.04923171 C302.26634515 0.05841111 333.25267246 0.06549719 364.23900154 0.06973952 C365.19357174 0.06987105 366.14814194 0.07000258 367.13163851 0.07013809 C376.71753144 0.07145657 386.30342437 0.07273239 395.88931731 0.07397695 C415.4181458 0.07651339 434.94697425 0.07933464 454.47580269 0.08232803 C455.37377282 0.08246532 456.27174295 0.08260261 457.1969243 0.08274406 C517.1960585 0.09194993 577.19519132 0.10779574 637.1943238 0.12467116 C636.8840545 1.69973985 636.57244796 3.27454514 636.26029423 4.84924144 C636.08691498 5.7262398 635.91353574 6.60323815 635.73490259 7.50681222 C634.93669867 11.3722715 633.97770664 15.18955151 632.99534919 19.01163406 C632.78529747 19.83744475 632.57524574 20.66325545 632.35882881 21.51409072 C631.67252113 24.20918483 630.98242292 26.90328997 630.29198005 29.59732741 C629.80864664 31.48958157 629.3254489 33.38187038 628.84237983 35.27419204 C627.83293548 39.22585719 626.82154864 43.17701883 625.80882576 47.12784499 C624.51595983 52.1723935 623.22843512 57.21828757 621.94242504 62.26458758 C620.94699514 66.1678307 619.94848296 70.0702804 618.94908264 73.97250861 C618.47327267 75.83204796 617.99845937 77.69184265 617.52469375 79.55190391 C616.86052073 82.15779149 616.19212635 84.76256234 615.52269294 87.36710281 C615.33090461 88.12319839 615.13911628 88.87929397 614.94151619 89.65830154 C613.58007628 94.92986663 611.92636007 99.92856238 610.1943238 105.12467116 C398.3343238 105.12467116 186.4743238 105.12467116 -31.8056762 105.12467116 C-29.55574978 93.87503911 -29.55574978 93.87503911 -27.96143791 88.37515945 C-27.60701622 87.14492049 -27.25259453 85.91468154 -26.88743279 84.64716262 C-26.50347669 83.32975013 -26.11945171 82.01235771 -25.7353637 80.69498366 C-25.33103246 79.29672433 -24.92707982 77.89835546 -24.52348015 76.49988479 C-23.46156005 72.82388308 -22.39484573 69.14929049 -21.32697747 65.47501296 C-20.06114011 61.11648713 -18.8008474 56.75635596 -17.53974983 52.3964569 C-16.50665043 48.82518992 -15.47268212 45.25418074 -14.43647454 41.68381423 C-12.41725638 34.72279069 -10.41229903 27.75817526 -8.43946526 20.78385085 C-8.25247378 20.1240038 -8.06548229 19.46415675 -7.8728244 18.78431434 C-6.98974636 15.6679219 -6.10981544 12.55071641 -5.23557732 9.43183059 C-4.92887108 8.34804122 -4.62216484 7.26425185 -4.30616448 6.14762038 C-3.90556313 4.72170074 -3.90556313 4.72170074 -3.49686882 3.26697463 C-2.49846918 0.17250439 -2.49846918 0.17250439 0 0 Z " fill="#000000" transform="translate(122.8056761957705,1087.8753288351)"/>
<path d="M0 0 C1.99355387 -0.00741071 3.98709532 -0.01921181 5.98060071 -0.03496498 C11.44180008 -0.06549551 16.90112188 -0.03404467 22.36218053 0.00781636 C28.30934613 0.04229042 34.2563297 0.01842557 40.20353317 0.00204146 C50.62064963 -0.01866182 61.0373038 -0.00264615 71.45433426 0.03842354 C82.62592278 0.08227353 93.79723689 0.1041415 104.96891403 0.09940147 C105.6756846 0.09911455 106.38245517 0.09882763 107.11064302 0.09853201 C110.71475085 0.09696817 114.3188584 0.09504869 117.92296599 0.09300365 C143.98037667 0.07894471 170.03754334 0.11318103 196.09487915 0.17317772 C221.89363819 0.2324369 247.69229272 0.2709355 273.49111938 0.28170586 C274.29283917 0.28204997 275.09455896 0.28239409 275.92057329 0.28274864 C283.24323382 0.28588071 290.56589443 0.28875761 297.88855517 0.29132839 C316.09046956 0.29772169 334.29238151 0.30731451 352.49429321 0.31908035 C353.3230949 0.31961353 354.15189659 0.3201467 355.00581348 0.32069603 C395.30535745 0.34690038 435.60483246 0.40997151 475.90432739 0.47608376 C489.88613839 0.49900072 503.86794962 0.52175452 517.84976196 0.54383278 C518.71693566 0.54520227 519.58410936 0.54657176 520.47756106 0.54798275 C560.80336649 0.61144393 601.12918377 0.64868602 641.45502604 0.67918073 C644.07356745 0.68116136 646.69210886 0.68315329 649.31065026 0.68514752 C666.66411316 0.69834554 684.01757638 0.71109199 701.37103985 0.72353611 C735.89902396 0.74830002 770.42700581 0.77571679 804.95498641 0.80495659 C806.59923457 0.80634899 808.24348272 0.80773953 809.88773088 0.80912822 C883.89166951 0.87164517 957.89555761 0.96502031 1031.89944458 1.07178688 C1032.93868353 1.07328591 1032.93868353 1.07328591 1033.99891721 1.07481522 C1068.64805419 1.12481805 1103.29718844 1.17658287 1137.94631958 1.23047829 C1137.63814412 3.12237216 1137.32793468 5.01393476 1137.01689148 6.90535927 C1136.84436639 7.95875905 1136.6718413 9.01215883 1136.49408817 10.09747982 C1135.7021501 14.62702167 1134.67346576 19.08525161 1133.59866333 23.55469704 C1133.38190445 24.46757988 1133.16514557 25.38046272 1132.94181824 26.32100868 C1132.48915999 28.22286285 1132.03451315 30.12424477 1131.57791138 32.02515602 C1130.8765299 34.94836005 1130.1835093 37.87346346 1129.49124146 40.79883766 C1129.04837314 42.65507468 1128.60503153 44.51119886 1128.16116333 46.36719704 C1127.95386093 47.24308983 1127.74655853 48.11898262 1127.53297424 49.02141762 C1126.06145745 55.11534042 1126.06145745 55.11534042 1124.94631958 56.23047829 C1122.26757485 56.32985972 1119.61458569 56.36299218 1116.93532509 56.35467678 C1116.07990139 56.35595487 1115.2244777 56.35723296 1114.34313208 56.35854977 C1111.43337188 56.3616491 1108.52366442 56.35752739 1105.61390591 56.35352612 C1103.51506382 56.35426479 1101.41622184 56.35544234 1099.31738022 56.35702261 C1093.49452351 56.36011332 1087.67168405 56.35689869 1081.84882861 56.35274448 C1075.53502054 56.3493286 1069.22121433 56.35167756 1062.90740591 56.35332197 C1051.8233877 56.35540212 1040.73937494 56.35377361 1029.65535736 56.34968376 C1017.75671647 56.34531261 1005.85807814 56.34311037 993.95943642 56.34358597 C992.83405253 56.34362901 992.83405253 56.34362901 991.68593361 56.34367291 C987.86068387 56.34382928 984.03543412 56.34402123 980.21018438 56.34422575 C952.48999006 56.34563495 924.76979803 56.34219651 897.04960442 56.33620834 C869.58892747 56.33029039 842.12825151 56.32643416 814.66757393 56.32535553 C813.81545586 56.32532112 812.9633378 56.32528671 812.08539798 56.32525125 C804.30286801 56.32493806 796.52033804 56.32465037 788.73780807 56.32439328 C769.38937398 56.3237538 750.04093991 56.32279442 730.69250584 56.32161808 C729.81131963 56.32156476 728.93013343 56.32151145 728.02224462 56.32145651 C685.13422431 56.31883358 642.24620466 56.31252544 599.35818481 56.30591774 C584.47091675 56.30362613 569.58364869 56.30135078 554.69638062 56.29914284 C553.7730989 56.29900589 552.84981719 56.29886894 551.89855724 56.29872784 C508.99548116 56.29238638 466.09240497 56.28865902 423.18932855 56.28560804 C420.40479502 56.28540998 417.62026149 56.28521079 414.83572796 56.28501136 C396.38282568 56.28369161 377.92992339 56.28241695 359.4770211 56.2811725 C322.75881116 56.27869586 286.04060124 56.27595417 249.32239133 56.27303046 C247.57368598 56.27289122 245.82498063 56.27275216 244.07627528 56.27261329 C165.3310521 56.26635842 86.58582939 56.25701992 7.84060669 56.24634743 C7.10310501 56.24624749 6.36560333 56.24614756 5.60575311 56.24604459 C-31.28072476 56.2410439 -68.1672026 56.23586736 -105.05368042 56.23047829 C-99.612177 50.71538878 -99.612177 50.71538878 -96.40133667 48.82813454 C-95.71926147 48.42046852 -95.03718628 48.01280251 -94.33444214 47.59278297 C-93.60241577 47.16384743 -92.8703894 46.73491188 -92.11618042 46.29297829 C-90.49393986 45.32223594 -88.87289817 44.34948804 -87.25289917 43.37500954 C-86.40260132 42.86405739 -85.55230347 42.35310524 -84.67623901 41.82666969 C-80.21707266 39.1126472 -75.824694 36.29523746 -71.42868042 33.48047829 C-60.78816916 26.68036355 -50.13854752 19.88199812 -39.34454739 13.32723423 C-37.02240648 11.84769623 -34.86199715 10.36335164 -32.66894042 8.71850047 C-21.8542921 0.88166074 -13.10480114 -0.1957164 0 0 Z " fill="#1A1A1A" transform="translate(2165.053680419922,640.7695217132568)"/>
<path d="M0 0 C219.12 0 438.24 0 664 0 C653.28149606 41.68307087 653.28149606 41.68307087 648.82177734 58.83789062 C647.96995557 62.11560768 647.11975477 65.39374304 646.26953125 68.671875 C645.7214508 70.78127511 645.17327779 72.89065118 644.625 75 C644.37403564 75.9684082 644.12307129 76.93681641 643.86450195 77.93457031 C643.63335693 78.82241211 643.40221191 79.71025391 643.1640625 80.625 C642.96248535 81.40101563 642.7609082 82.17703125 642.55322266 82.9765625 C642.09098831 84.66720602 641.55425049 86.33724852 641 88 C420.89 88 200.78 88 -26 88 C-22.5526345 74.21053801 -22.5526345 74.21053801 -20.65576172 67.87646484 C-20.33564621 66.79600891 -20.33564621 66.79600891 -20.00906372 65.69372559 C-19.31848954 63.36536275 -18.62421773 61.03812303 -17.9296875 58.7109375 C-17.44295124 57.07383311 -16.95639231 55.43667597 -16.47000122 53.79946899 C-15.45804898 50.39527908 -14.44431198 46.99162766 -13.42919922 43.58837891 C-12.12703661 39.22241283 -10.82891203 34.85525845 -9.53202629 30.4877224 C-8.53145961 27.11937855 -7.52905913 23.75158271 -6.52606583 20.38396072 C-6.04631012 18.77251889 -5.56706715 17.16092432 -5.08834457 15.54917526 C-4.42254126 13.30876355 -3.754338 11.06908199 -3.08544922 8.82958984 C-2.88804138 8.16367828 -2.69063354 7.49776672 -2.48724365 6.81167603 C-1.78040637 4.45211274 -1.10391337 2.20782675 0 0 Z " fill="#000000" transform="translate(308,438)"/>
<path d="M0 0 C219.45 0 438.9 0 665 0 C663.82401868 6.46789726 662.65621519 12.83208748 661.13647461 19.20947266 C660.96222458 19.95074402 660.78797455 20.69201538 660.60844421 21.45574951 C660.0426197 23.85920967 659.47268394 26.26167026 658.90234375 28.6640625 C658.50388842 30.34984977 658.10558059 32.03567191 657.70741272 33.7215271 C656.87805164 37.2300068 656.04657379 40.73797633 655.21362305 44.24560547 C654.14433937 48.7494492 653.080987 53.25467009 652.01923275 57.76029396 C651.20081797 61.23001137 650.37905277 64.69892853 649.55627632 68.16761398 C649.16243876 69.83001008 648.76971929 71.49267147 648.37812614 73.15559769 C647.83357814 75.46605777 647.28447677 77.77538784 646.73413086 80.08447266 C646.57255493 80.77425201 646.410979 81.46403137 646.24450684 82.17471313 C645.11422765 86.88577235 645.11422765 86.88577235 644 88 C642.53990883 88.09713132 641.07512041 88.12447361 639.61180204 88.1241985 C638.65633231 88.12644579 637.70086258 88.12869308 636.71643922 88.13100848 C635.12004516 88.12706796 635.12004516 88.12706796 633.49140072 88.12304783 C632.36747837 88.12420167 631.24355603 88.12535552 630.08557543 88.12654433 C626.26829385 88.12921973 622.45105331 88.12468128 618.6337738 88.12025452 C615.88991797 88.12013401 613.14606338 88.12152218 610.40220791 88.12284368 C604.41018344 88.12492331 598.41816888 88.12326366 592.42614555 88.11920547 C583.51612877 88.11318773 574.60611826 88.11286806 565.69609982 88.11374746 C550.71039173 88.11506358 535.72468805 88.11171158 520.73898125 88.10573006 C505.89401668 88.09981985 491.04905395 88.09596549 476.20408821 88.09487724 C475.28223634 88.0948085 474.36038447 88.09473976 473.4105977 88.09466894 C468.72927679 88.09433062 464.04795588 88.09402923 459.36663497 88.09374207 C426.1797248 88.09163977 392.99281702 88.08489716 359.8059082 88.07543945 C327.5585125 88.06626008 295.31111745 88.05917399 263.0637207 88.05493164 C262.07030505 88.05480011 261.07688939 88.05466859 260.05337023 88.05453308 C250.07738891 88.05321459 240.10140758 88.05193878 230.12542624 88.05069422 C209.80188427 88.04815777 189.47834233 88.04533652 169.15480042 88.04234314 C167.75303115 88.0421372 167.75303115 88.0421372 166.32294331 88.04192711 C103.88196121 88.0327212 41.44098044 88.0168754 -21 88 C-19.52807504 81.56442191 -18.05523146 75.12905451 -16.58181763 68.69381714 C-16.08312318 66.51527404 -15.58462138 64.33668683 -15.08633423 62.15805054 C-1.60188368 3.20376735 -1.60188368 3.20376735 0 0 Z " fill="#1A1A1A" transform="translate(2568,938)"/>
<path d="M0 0 C0.8284131 0.00015598 1.65682619 0.00031196 2.51034271 0.00047267 C3.46437903 -0.00177462 4.41841534 -0.00402192 5.40136185 -0.00633731 C6.99534939 -0.00239679 6.99534939 -0.00239679 8.62153869 0.00162334 C9.74377267 0.00046949 10.86600664 -0.00068435 12.0222477 -0.00187316 C15.8337859 -0.00454856 19.645283 -0.00001012 23.45681911 0.00441665 C26.19655015 0.00453715 28.93627994 0.00314898 31.6760106 0.00182748 C37.6590227 -0.00025214 43.64202487 0.0014075 49.62503582 0.00546569 C58.52165135 0.01148344 67.41826059 0.01180311 76.31487779 0.0109237 C91.27804696 0.00960759 106.24121173 0.01295958 121.20437961 0.01894111 C136.02701549 0.02485131 150.84964952 0.02870567 165.67228657 0.02979392 C166.59275209 0.02986266 167.51321761 0.0299314 168.46157603 0.03000222 C173.13585689 0.03034054 177.81013775 0.03064193 182.48441862 0.0309291 C215.62141449 0.0330314 248.75840797 0.03977401 281.89540249 0.04923171 C314.09429559 0.05841109 346.29318803 0.06549718 378.49208217 0.06973952 C379.48400377 0.06987105 380.47592537 0.07000258 381.4979052 0.07013809 C391.45888313 0.07145657 401.41986106 0.07273239 411.38083899 0.07397695 C431.67381507 0.07651339 451.9667911 0.07933464 472.25976711 0.08232803 C473.19287447 0.08246532 474.12598182 0.08260261 475.08736516 0.08274406 C537.43443003 0.09194996 599.78149357 0.10779577 662.12855678 0.12467116 C661.81296693 2.04508629 661.49612683 3.96529599 661.17875915 5.88541812 C661.00245297 6.95475677 660.82614678 8.02409543 660.64449799 9.12583828 C660.05814503 12.53392921 659.34021062 15.8900792 658.54042202 19.25430984 C658.24348949 20.51148315 657.94655697 21.76865646 657.64062649 23.06392593 C657.32299587 24.39021057 657.00516606 25.71644752 656.68715053 27.04263991 C656.35585129 28.43550964 656.02480647 29.8284399 655.69400173 31.22142715 C655.00657612 34.11208498 654.31631822 37.00204666 653.62391811 39.89151687 C652.73539543 43.60033877 651.85386271 47.31078185 650.97433525 51.02174586 C650.29498352 53.8849984 649.61217993 56.74741881 648.92828709 59.60958976 C648.60150396 60.97893614 648.27576899 62.34853308 647.95109516 63.71838111 C647.49999466 65.61921194 647.04377916 67.51882672 646.58729702 69.41837234 C646.32907665 70.4991455 646.07085628 71.57991866 645.80481106 72.69344253 C645.12855678 75.12467116 645.12855678 75.12467116 644.12855678 76.12467116 C642.67060642 76.2217964 641.20795274 76.24914478 639.74677086 76.24886966 C638.79273454 76.25111695 637.83869823 76.25336425 636.85575172 76.25567964 C635.79309336 76.25305263 634.730435 76.25042561 633.63557487 76.24771899 C631.95222392 76.24944976 631.95222392 76.24944976 630.23486587 76.25121549 C626.42332767 76.25389089 622.61183057 76.24935245 618.80029446 76.24492568 C616.06056342 76.24480518 613.32083363 76.24619335 610.58110296 76.24751485 C604.59809087 76.24959447 598.61508869 76.24793483 592.63207775 76.24387664 C583.73546222 76.23785889 574.83885298 76.23753922 565.94223578 76.23841863 C550.97906661 76.23973474 536.01590184 76.23638275 521.05273395 76.23040122 C506.23009808 76.22449102 491.40746404 76.22063666 476.584827 76.21954841 C475.66436148 76.21947967 474.74389596 76.21941093 473.79553754 76.21934011 C469.12125668 76.21900179 464.44697581 76.2187004 459.77269495 76.21841323 C426.63569908 76.21631093 393.4987056 76.20956832 360.36171108 76.20011062 C328.16281798 76.19093124 295.96392554 76.18384515 263.76503139 76.17960281 C262.77310979 76.17947128 261.78118819 76.17933975 260.75920837 76.17920424 C250.79823044 76.17788576 240.83725251 76.17660994 230.87627458 76.17536538 C210.5832985 76.17282894 190.29032247 76.17000769 169.99734646 76.1670143 C169.0642391 76.16687701 168.13113175 76.16673972 167.16974841 76.16659827 C104.82268354 76.15739237 42.47562 76.14154656 -19.87144322 76.12467116 C-19.55558928 74.3692402 -19.23881138 72.61397546 -18.92164559 70.85878104 C-18.7453394 69.88130019 -18.56903322 68.90381934 -18.38738442 67.89671785 C-17.77036706 64.58160961 -17.04987435 61.3003914 -16.28330845 58.01676101 C-15.98637592 56.73949142 -15.6894434 55.46222182 -15.38351292 54.14624709 C-15.06585413 52.79266186 -14.74802495 51.4391166 -14.43003697 50.08560866 C-14.09885433 48.66886119 -13.76780718 47.25208204 -13.43688816 45.83527297 C-12.74868635 42.89175699 -12.05845241 39.94872689 -11.36680454 37.00601882 C-10.47919699 33.22855485 -9.59744003 29.44975173 -8.71722168 25.67056007 C-8.03777575 22.75672657 -7.35497825 19.84368646 -6.67117352 16.9308731 C-6.34430965 15.53642135 -6.0185749 14.14170443 -5.69398159 12.7467224 C-5.24284666 10.80988339 -4.78664687 8.87422617 -4.33018345 6.93863601 C-4.07196308 5.83708175 -3.81374272 4.73552749 -3.54769749 3.6005928 C-2.61178166 0.17399078 -2.61178166 0.17399078 0 0 Z " fill="#1A1A1A" transform="translate(2490.8714432157576,1274.8753288351)"/>
<style>
        path { fill: #000; }
        @media (prefers-color-scheme: dark) {
            path { fill: #FFF; }
        }
    </style>
</svg>
